HIERARCHY
ROOT Hips
{
	OFFSET 0.00000 0.00000 0.00000
	CHANNELS 6 Xposition Yposition Zposition Zrotation Yrotation Xrotation 
	JOINT LHipJoint
	{
		OFFSET 0 0 0
		CHANNELS 3 Zrotation Yrotation Xrotation
		JOINT LeftHip
		{
			OFFSET 1.75344 -1.53157 0.77399
			CHANNELS 3 Zrotation Yrotation Xrotation
			JOINT LeftKnee
			{
				OFFSET 2.25415 -6.19323 0.00000
				CHANNELS 3 Zrotation Yrotation Xrotation
				JOINT LeftAnkle
				{
					OFFSET 2.30342 -6.32861 0.00000
					CHANNELS 3 Zrotation Yrotation Xrotation
					JOINT LeftToe
					{
						OFFSET 0.10958 -0.30108 1.49206
						CHANNELS 3 Zrotation Yrotation Xrotation
						End Site
						{
							OFFSET 0.00000 -0.00000 0.77783
						}
					}
				}
			}
		}
	}
	JOINT RHipJoint
	{
		OFFSET 0 0 0
		CHANNELS 3 Zrotation Yrotation Xrotation
		JOINT RightHip
		{
			OFFSET -1.81912 -1.53156 0.77399
			CHANNELS 3 Zrotation Yrotation Xrotation
			JOINT RightKnee
			{
				OFFSET -2.22882 -6.12365 0.00000
				CHANNELS 3 Zrotation Yrotation Xrotation
				JOINT RightAnkle
				{
					OFFSET -2.21943 -6.09785 0.00000
					CHANNELS 3 Zrotation Yrotation Xrotation
					JOINT RightToe
					{
						OFFSET -0.18931 -0.52012 1.59379
						CHANNELS 3 Zrotation Yrotation Xrotation
						End Site
						{
							OFFSET -0.00000 -0.00000 0.84686
						}
					}
				}
			}
		}
	}
	JOINT lowerback
	{
		OFFSET 0 0 0
		CHANNELS 3 Zrotation Yrotation Xrotation
		JOINT Chest
		{
			OFFSET -0.00200 1.66634 -0.14248
			CHANNELS 3 Zrotation Yrotation Xrotation
			JOINT Chest2
			{
				OFFSET -0.00875 1.64542 0.09514
				CHANNELS 3 Zrotation Yrotation Xrotation
				JOINT lowerneck
				{
					OFFSET 0 0 0
					CHANNELS 3 Zrotation Yrotation Xrotation
					JOINT Neck
					{
						OFFSET 0.02257 1.59605 0.00839
						CHANNELS 3 Zrotation Yrotation Xrotation
						JOINT Head
						{
							OFFSET -0.10214 1.57530 -0.23335
							CHANNELS 3 Zrotation Yrotation Xrotation
							End Site
							{
								OFFSET -0.03588 1.60717 -0.08062
							}
						}
					}
				}
				JOINT LeftCollar
				{
					OFFSET 0 0 0
					CHANNELS 3 Zrotation Yrotation Xrotation
					JOINT LeftShoulder
					{
						OFFSET 2.54983 1.10186 0.40078
CHANNELS 3 Zrotation Xrotation Yrotation
						JOINT LeftElbow
						{
OFFSET 0 -4.288400 0.000000
CHANNELS 3 Zrotation Xrotation Yrotation
							JOINT LeftWrist
							{
OFFSET 0 -3.065520 -0.000000
CHANNELS 3 Zrotation Xrotation Yrotation
								JOINT lhand
								{
									OFFSET 0 0 0
CHANNELS 3 Zrotation Xrotation Yrotation
									JOINT LFingers
									{
OFFSET 0 -0.753040 0.000000
CHANNELS 3 Zrotation Xrotation Yrotation
										End Site
										{
OFFSET 0 -0.607120 0.000000
										}
									}
								}
								JOINT LThumb
								{
OFFSET 0 0.000000 0.000000
CHANNELS 3 Zrotation Xrotation Yrotation
									End Site
									{
OFFSET 0 -0.616390 0.616390
									}
								}
							}
						}
					}
				}
				JOINT RightCollar
				{
					OFFSET 0 0 0
					CHANNELS 3 Zrotation Yrotation Xrotation
					JOINT RightShoulder
					{
						OFFSET -2.60909 1.35448 0.21802
CHANNELS 3 Zrotation Xrotation Yrotation
						JOINT RightElbow
						{
OFFSET 0 -4.521720 -0.000000
CHANNELS 3 Zrotation Xrotation Yrotation
							JOINT RightWrist
							{
OFFSET 0 -2.891400 0.000000
CHANNELS 3 Zrotation Xrotation Yrotation
								JOINT rhand
								{
									OFFSET 0 0 0
CHANNELS 3 Zrotation Xrotation Yrotation
									JOINT RFingers
									{
OFFSET 0 -0.680540 0.000000
CHANNELS 3 Zrotation Xrotation Yrotation
										End Site
										{
OFFSET 0 -0.548670 0.000000
										}
									}
								}
								JOINT RThumb
								{
OFFSET 0 0.000000 0.000000
CHANNELS 3 Zrotation Xrotation Yrotation
									End Site
									{
OFFSET 0 -0.557050 0.557050
									}
								}
							}
						}
					}
				}
			}
		}
	}
}
MOTION
Frames: 10
Frame Time: 0.008333333333333333
8.051000 15.100000 41.556400 -178.724000 -17.953800 178.922000 0.000000 0.000000 0.000000 -23.769500 -28.453700 -4.016200 3.130900 10.904000 31.956600 1.318000 -10.726500 -20.759100 2.302000 -9.468700 -27.272900 0.000000 0.000000 0.000000 29.049300 9.355300 -1.567900 -2.078600 -9.028000 25.883000 -2.821500 -24.897900 -47.599600 -3.334600 -11.217900 33.018400 3.279600 3.412800 9.573400 -0.729400 4.930500 -4.279900 -3.477300 2.132500 -9.610500 4.411700 10.984500 -7.596100 -3.495000 14.666500 15.358400 -0.611400 6.964000 6.506600 -0.000000 0.000000 0.000000 8.218200 14.252800 1.304500 21.912100 -32.877600 6.538100 8.001300 11.308800 25.126300 0.000000 0.000000 0.000000 -7.125000 0.000000 0.000000 -13.116800 5.189000 -12.208200 -0.000000 0.000000 0.000000 -8.818700 18.250300 47.831500 -19.384900 -29.894200 -5.221300 -21.479800 30.694400 52.395000 0.000000 0.000000 0.000000 7.125000 0.000000 -0.000000 60.499100 79.325700 -50.667300
8.062344 15.109648 41.500511 -178.983698 -17.402417 179.367047 0.000000 0.000000 0.000000 -24.120194 -29.128278 -3.603763 3.074155 10.814026 31.655327 1.385553 -9.663699 -21.146253 2.193872 -9.258048 -26.606438 0.000000 0.000000 0.000000 28.824261 9.842067 -1.566375 -2.061055 -8.992109 25.770760 -2.706831 -25.222358 -47.462087 -3.359166 -11.254933 33.144581 2.527509 3.518017 8.076025 -0.712262 4.911492 -4.568493 -2.934418 2.178018 -9.107685 4.838625 11.489973 -6.136573 -3.363489 15.290602 15.235605 -0.667116 7.315632 6.268696 0.000000 0.000000 0.000000 10.666801 15.442667 -2.424248 23.527164 -34.657340 7.437098 9.059530 10.582996 25.214384 0.000000 0.000000 0.000000 -7.125000 0.000000 0.000000 -12.487319 4.986971 -11.629621 0.000000 0.000000 0.000000 -8.824127 19.074174 47.297217 -19.279606 -29.764655 -5.168964 -22.699616 31.189742 52.982505 0.000000 0.000000 0.000000 7.125000 0.000000 0.000000 63.345350 80.002444 -53.956940
8.108442 15.112997 41.476154 -178.919763 -16.523180 179.294155 0.000000 0.000000 0.000000 -23.877372 -28.660401 -3.405236 3.052469 10.779532 31.539869 1.446394 -8.957828 -21.549460 2.627232 -10.065308 -29.188828 0.000000 0.000000 0.000000 29.158945 10.217842 -1.275222 -2.053685 -8.976981 25.723262 -2.999732 -24.568715 -47.970824 -3.421826 -11.344611 33.455726 1.496631 3.677547 7.555325 -0.352045 5.015118 -4.623408 -1.960778 2.305342 -8.975104 4.400706 12.378467 -6.897076 -1.657991 16.280997 17.000343 0.102760 7.838113 6.822202 0.000000 0.000000 0.000000 12.821088 16.336682 -6.953741 26.285596 -37.487765 9.061516 5.302697 8.357412 21.906230 0.000000 0.000000 0.000000 -7.125000 0.000000 0.000000 -14.759269 8.560922 -12.843170 0.000000 0.000000 0.000000 -8.857697 19.506282 46.484567 -19.265804 -29.747561 -5.162013 -21.147399 30.343697 53.738259 0.000000 0.000000 0.000000 7.125000 0.000000 0.000000 67.648445 79.531491 -57.493143
8.129783 15.108428 41.466995 -178.790671 -17.021377 179.136289 0.000000 0.000000 0.000000 -23.737706 -28.913516 -3.305181 3.082210 10.826982 31.698586 1.429223 -9.294690 -21.442902 2.524950 -9.883017 -28.598852 0.000000 0.000000 0.000000 29.511130 10.229003 -0.977916 -2.024846 -8.917690 25.538265 -3.501650 -23.929391 -49.246752 -4.060116 -12.239773 36.585794 1.623315 3.574081 7.589540 -0.353013 4.891667 -4.630865 -2.016716 2.236930 -8.997136 4.441592 12.668714 -6.580233 -1.448380 16.645393 16.746885 0.162484 8.046569 6.682908 0.000000 0.000000 0.000000 14.823039 16.735272 -10.877781 28.686721 -39.737906 10.560963 4.118598 6.801271 21.675256 0.000000 0.000000 0.000000 -7.125000 0.000000 0.000000 -15.495733 8.870673 -13.435436 0.000000 0.000000 0.000000 -8.216831 19.701806 45.582594 -19.215482 -29.685594 -5.137158 -21.753596 30.811908 54.213778 0.000000 0.000000 0.000000 7.125000 0.000000 0.000000 70.277279 79.856245 -60.311133
8.144729 15.108774 41.458866 -178.829631 -17.153319 179.110629 0.000000 0.000000 0.000000 -23.745519 -28.939405 -3.190829 3.076884 10.818497 31.670159 1.424624 -9.520615 -21.424701 2.385601 -9.625682 -27.773849 0.000000 0.000000 0.000000 29.700985 10.652276 -0.627784 -2.010876 -8.888697 25.447803 -3.458093 -24.406627 -49.471944 -4.112705 -12.308780 36.833362 1.563071 3.551063 7.534778 -0.332871 4.855169 -4.584078 -1.950675 2.226406 -8.922077 4.561733 12.973185 -6.300192 -1.563036 17.077249 16.236495 0.113405 8.274421 6.505726 0.000000 0.000000 0.000000 15.905529 17.031630 -13.589929 31.102152 -41.817417 12.138643 3.148641 5.295870 22.108984 0.000000 0.000000 0.000000 -7.125000 0.000000 0.000000 -16.081383 8.519402 -14.103670 0.000000 0.000000 0.000000 -7.889526 19.794226 46.139198 -19.236575 -29.711559 -5.147555 -21.950818 31.124593 54.092197 0.000000 0.000000 0.000000 7.125000 0.000000 0.000000 69.610573 79.918696 -59.743248
8.151127 15.106756 41.454268 -178.909611 -17.124077 179.071100 0.000000 0.000000 0.000000 -23.908344 -29.055851 -2.977279 3.072012 10.810668 31.643915 1.452867 -8.978651 -21.598890 2.666889 -10.134745 -29.414603 0.000000 0.000000 0.000000 29.735010 10.901720 -0.393872 -2.006041 -8.878637 25.416544 -3.503724 -24.497093 -49.703188 -4.163875 -12.375360 37.073077 1.561279 3.569370 7.518378 -0.338980 4.881272 -4.481422 -1.954003 2.244195 -8.799153 4.847043 13.212399 -6.561679 -1.589760 17.378118 16.230490 0.115861 8.435736 6.586107 0.000000 0.000000 0.000000 16.467120 17.278639 -15.759007 33.375122 -43.615212 13.680602 2.706851 3.650765 21.133357 0.000000 0.000000 0.000000 -7.125000 0.000000 0.000000 -16.384080 9.484196 -14.063864 0.000000 0.000000 0.000000 -7.546989 19.741057 47.734813 -19.101233 -29.544189 -5.080726 -23.376255 32.941542 53.605887 0.000000 0.000000 0.000000 7.125000 0.000000 0.000000 66.887488 80.422397 -57.687178
8.152474 15.108799 41.456225 -178.952751 -17.064513 179.135329 0.000000 0.000000 0.000000 -23.949643 -29.192225 -2.981783 3.070201 10.807868 31.634540 1.436178 -8.967198 -21.473881 2.531161 -9.894311 -28.635225 0.000000 0.000000 0.000000 29.744625 11.239842 -0.301511 -2.002656 -8.871512 25.394332 -3.680191 -24.270219 -50.135642 -4.264795 -12.504652 37.541459 1.787116 3.596809 7.452777 -0.417687 4.935797 -4.473167 -2.164231 2.256517 -8.723531 5.240213 13.388336 -6.312489 -1.842401 17.622018 15.752712 -0.022689 8.575777 6.458795 0.000000 0.000000 0.000000 16.394449 17.521686 -16.825305 35.049071 -44.846585 14.848132 2.182246 3.276942 20.474021 0.000000 0.000000 0.000000 -7.125000 0.000000 0.000000 -16.734810 10.147048 -14.158839 0.000000 0.000000 0.000000 -7.080918 19.715036 49.536150 -18.949469 -29.355810 -5.006081 -22.966422 32.993551 53.115024 0.000000 0.000000 0.000000 7.125000 0.000000 0.000000 64.055285 80.147490 -54.759948
8.158148 15.113697 41.459583 -178.936242 -16.856175 179.151583 0.000000 0.000000 0.000000 -23.870721 -29.096892 -3.027068 3.059811 10.791314 31.579166 1.440779 -8.909455 -21.505159 2.302081 -9.468266 -27.271905 0.000000 0.000000 0.000000 29.809788 11.412023 -0.303085 -2.005823 -8.878223 25.415240 -3.521901 -24.633514 -49.874537 -4.127456 -12.327966 36.902446 2.012036 3.746162 7.534185 -0.555829 5.156863 -4.333095 -2.464665 2.353946 -8.576723 5.511341 13.474439 -7.082299 -1.778924 17.686266 15.875024 0.030379 8.621357 6.649317 0.000000 0.000000 0.000000 16.063436 17.228832 -17.742087 35.710340 -45.312705 15.316236 1.643275 2.938250 20.411672 0.000000 0.000000 0.000000 -7.125000 0.000000 0.000000 -17.071833 10.236261 -14.439694 0.000000 0.000000 0.000000 -6.268456 19.701866 51.249008 -19.042874 -29.471891 -5.051922 -23.187129 33.141857 53.010842 0.000000 0.000000 0.000000 7.125000 0.000000 0.000000 63.438584 80.213992 -54.253508
8.161816 15.118432 41.461095 -179.078000 -16.718490 179.177631 0.000000 0.000000 0.000000 -24.047322 -29.113516 -2.978712 3.054021 10.781990 31.548049 1.468853 -8.535536 -21.697828 2.623777 -10.059046 -29.168518 0.000000 0.000000 0.000000 29.707703 11.502350 -0.194467 -1.999399 -8.864931 25.373639 -3.632166 -24.451445 -50.111358 -4.196071 -12.416762 37.222672 2.023698 3.784532 7.588301 -0.571132 5.212284 -4.231106 -2.494370 2.384445 -8.492476 5.429718 13.554527 -7.670440 -1.633371 17.774540 15.963232 0.140456 8.666072 6.758565 0.000000 0.000000 0.000000 15.022978 17.305380 -18.264162 35.678516 -45.290561 15.293561 1.370353 3.120860 20.702355 0.000000 0.000000 0.000000 -7.125000 0.000000 0.000000 -17.226905 9.973189 -14.680945 0.000000 0.000000 0.000000 -5.411367 19.438631 51.466951 -18.917554 -29.316163 -4.990430 -23.679324 35.232290 53.620850 0.000000 0.000000 0.000000 7.125000 0.000000 0.000000 67.002592 80.550125 -57.925720
8.163033 15.120710 41.461527 -178.959973 -16.443607 179.240952 0.000000 0.000000 0.000000 -23.852288 -29.075190 -3.083987 3.058441 10.789005 31.571682 1.494216 -8.283619 -21.878433 2.722287 -10.231263 -29.728971 0.000000 0.000000 0.000000 29.816113 11.665884 -0.244603 -1.988565 -8.842336 25.303224 -3.473021 -24.639947 -49.710023 -4.142359 -12.347371 36.972406 2.344883 3.824056 7.460824 -0.477103 5.305020 -4.200793 -2.573532 2.418315 -8.360937 5.230275 13.570176 -8.026693 -1.555387 17.805248 16.116501 0.224909 8.668587 6.843254 0.000000 0.000000 0.000000 13.124736 17.114451 -17.621689 34.522341 -44.467940 14.477677 0.866867 4.307463 20.683415 0.000000 0.000000 0.000000 -7.125000 0.000000 0.000000 -17.538147 10.017293 -14.957515 0.000000 0.000000 0.000000 -4.799292 19.067350 49.297207 -18.599317 -28.917761 -4.835527 -24.677816 37.471337 53.351383 0.000000 0.000000 0.000000 7.125000 0.000000 0.000000 65.417970 80.917253 -56.802857
